Patient4_TMGait_0pt4_03_left_08_EMG.mot
version=1
nRows=13
nColumns=33
inDegrees=no
endheader
time	1LAddLong	2LGlutMax	3LGlutMed	4LIliopsoas	5LSemiMemb	6LBicFemLong	7LRecFem	8LVastMed	9LVastLat	10LGasMed	11LTibAnt	12lTibPost	13LPeroneusLong	14LSol	15LExtDigLong	16LFlexDigLong	17RAddLong	18RGlutMax	19RGlutMed	20RIliopsoas	21RSemiMemb	22RBicFemLong	23RRecFem	24RVastMed	25RVastLat	26RGasMed	27RTibAnt	28RTibPost	29RPeroneusLong	30RSol	31RExtDigLong	32RFlexDigLong
10.04	0.011902	0.12528	0.031586	0.007629	0.003357	0.000458	0.17258	0.02243	0.14954	-0.045166	-0.011902	-0.011902	-0.016937	-0.089569	0.12329	0.012817	-0.021515	0.89233	0.19119	-0.039978	0.066833	0.071411	-0.54321	0.009613	0.22324	0.11414	0.86456	0.20874	0.012207	0.15182	-0.003052	0.00351
10.041	0.013123	0.09552	0.019836	0.007019	0.005188	-0.003967	0.14267	0.026245	0.15762	-0.052643	-0.03952	-0.011139	-0.003815	-0.03418	0.12116	0.007172	-0.015259	0.91461	0.009155	0.003357	0.35675	-0.018616	-0.15167	0.085907	0.1239	0.052795	1.5239	-0.010681	-0.41504	0.168	0.003357	-0.006866
10.042	0.020905	0.10117	-0.007324	-0.003662	-0.000763	0.003204	0.16632	0.023193	0.15717	-0.040283	-0.054626	-0.010376	-0.002747	-0.021973	0.12894	0.018311	-0.021973	0.91705	-0.20828	-0.037079	0.26382	-0.054779	0.072327	0.12894	0.11673	0.021515	0.7254	-0.053406	-0.37827	0.50049	-0.001373	-0.013123
10.043	0.018005	0.103	0.02594	0.005951	0.000763	-0.014343	0.25253	0.021515	0.17792	-0.006866	0.012665	-0.012665	-0.03479	-0.075684	0.07309	0.006256	-0.02594	0.85434	0.042572	-0.043335	0.095825	-0.036621	0.13046	0.13031	0.15427	0.012665	-0.5217	0.027161	-0.18082	0.72311	0.000763	0.007324
10.044	0.029907	0.05661	-0.005951	0.00824	0.001221	-0.001678	0.25101	0.014954	0.18341	-0.017242	0.038757	-0.010986	-0.026398	-0.033569	0.062561	0.02121	-0.002747	0.78659	0.31204	-0.071869	-0.004883	-0.039215	0.20737	0.024261	0.10056	0.020142	-1.3559	0.011902	-0.015259	0.5159	-0.003815	0.009308
10.045	0.016632	0.056915	-0.017242	0.000916	0.008698	-0.005341	0.15121	0.020142	0.18539	-0.022736	0.072632	-0.02533	-0.003662	-0.023956	0.34439	0.022278	0.012207	0.74326	0.20538	-0.027008	-0.16159	-0.026245	0.26001	0.14572	0.047302	0.048218	-1.7708	-0.00351	0.49423	-0.08316	-0.00412	0.021362
10.046	0.031738	0.055237	-0.010376	0.009766	0.011749	-0.024109	0.11231	0.024109	0.15533	-0.028992	0.1445	-0.00885	-0.010223	0.001984	0.54962	0.016785	0.029297	0.6987	0.05661	-0.005341	-0.19913	-0.042877	0.14969	0.096588	-0.026093	0.050354	-1.096	-0.020599	0.27985	-0.18005	-0.007477	0.014801
10.047	0.030365	0.048828	-0.005646	0.016327	0.005035	-0.027466	0.092621	0.018616	0.15869	-0.018158	0.13489	-0.014801	-0.049133	0.011292	-0.24017	0.018921	0.047302	0.70282	0.2887	-0.000305	0.1535	-0.036774	0.036926	0.055542	-0.036011	0.009155	0.40192	-0.030212	-0.13168	-0.32761	-0.006714	0.001678
10.048	0.027618	0.045319	-0.029755	-0.002289	0.007629	-0.019684	0.061493	0.020142	0.16083	-0.028229	-0.062408	-0.013885	-0.01297	0.020599	-0.29556	0.023499	0.038147	0.7016	0.18814	-0.011597	0.51361	-0.053864	-0.061493	-0.008087	-0.031586	-0.010681	0.54336	-0.014801	-0.10086	-0.16342	-0.007324	0.000305
10.049	0.032501	0.008545	-0.020447	-0.005035	0.001984	-0.03479	0.006409	0.021057	0.15396	-0.019073	-0.058289	-0.015564	-0.00061	-0.001831	-0.20203	0.007019	0.00061	0.62393	0.43503	-0.021362	0.20294	-0.041656	-0.20096	-0.09079	-0.10605	0.032501	0.042419	-0.023346	-0.054169	-0.16296	-0.006409	-0.006409
10.05	0.02594	0.015564	-0.036316	-0.004578	0.007629	-0.036621	0.015717	0.010376	0.15991	-0.028381	0.012207	-0.011749	-0.016937	0.011597	0.033722	0.020142	-0.04776	0.60791	0.29282	-0.011444	-0.10315	0.025177	-0.20035	-0.084991	-0.11887	0.039063	-0.42572	-0.030365	0.029602	-0.096436	-0.004272	-0.003662
10.051	0.02243	0.038147	0.005188	0.002747	0.010834	-0.028229	0.018616	0.016632	0.15823	-0.015106	0.10468	-0.014191	-0.028381	0.012665	0.009766	0.009766	-0.037079	0.62485	0.14847	-0.043793	-0.20584	-0.042114	0.02655	-0.02594	-0.036316	0.036621	-0.35095	-0.033722	0.06424	-0.01236	-0.002747	-0.003204
10.052	0.012512	0.027161	0.029297	0.004425	0.013123	-0.046082	0.037537	0.013123	0.15717	-0.048065	0.002747	-0.006866	-0.011902	0.046387	-0.017395	0.015259	-0.00351	0.6076	0.17578	-0.027618	-0.000458	-0.084534	0.006409	0.032196	0.017242	0.00946	-0.10727	-0.033417	0.027466	0.2655	-0.001526	-0.011597
